<?xml version="1.0" standalone="no"?>
<!DOCTYPE svg PUBLIC "-//W3C//DTD SVG 20010904//EN"
 "http://www.w3.org/TR/2001/REC-SVG-20010904/DTD/svg10.dtd">
<svg version="1.0" xmlns="http://www.w3.org/2000/svg"
 width="1280.000000pt" height="1280.000000pt" viewBox="0 0 1280.000000 1280.000000"
 preserveAspectRatio="xMidYMid meet">

<g transform="translate(0.000000,1280.000000) scale(0.100000,-0.100000)"
fill="#000000" stroke="none">
<path d="M10604 12790 c-6 -6 -35 -14 -65 -19 -110 -18 -169 -41 -209 -81 -97
-97 -71 -264 50 -327 38 -20 55 -23 110 -18 36 3 88 9 115 14 28 5 70 13 95
17 113 18 190 105 190 214 0 69 -37 134 -96 171 -22 13 -40 27 -42 31 -5 12
-136 10 -148 -2z"/>
<path d="M9545 12580 c-16 -4 -66 -16 -110 -26 -94 -20 -110 -28 -148 -63 -46
-42 -61 -79 -60 -151 0 -81 31 -136 97 -175 60 -35 103 -40 183 -22 38 9 95
21 128 28 142 27 205 93 205 214 0 54 -4 69 -32 110 -45 65 -102 95 -176 94
-31 -1 -70 -5 -87 -9z"/>
<path d="M8530 12380 c-8 -5 -28 -10 -43 -10 -33 0 -150 -27 -187 -43 -86 -37
-120 -92 -120 -192 0 -91 38 -150 119 -186 52 -23 102 -24 184 -4 34 8 91 20
127 27 43 9 78 23 104 43 59 45 74 78 75 163 1 60 -3 79 -23 111 -27 42 -75
81 -99 81 -9 0 -19 5 -22 10 -8 13 -95 13 -115 0z"/>
<path d="M7490 12180 c-19 -5 -73 -16 -120 -25 -106 -21 -135 -32 -172 -63
-85 -72 -92 -215 -14 -300 55 -61 145 -77 269 -48 34 8 87 20 117 27 30 7 69
21 86 32 73 48 108 146 84 236 -15 58 -81 122 -143 139 -52 13 -57 13 -107 2z"/>
<path d="M6410 11970 c-30 -5 -68 -13 -83 -19 -16 -6 -41 -11 -56 -11 -59 0
-138 -56 -172 -122 -49 -95 -10 -207 93 -271 35 -22 156 -23 224 -2 27 8 59
15 72 15 52 0 108 26 154 71 37 38 48 55 53 93 27 180 -86 277 -285 246z"/>
<path d="M4435 11930 c-3 -5 -14 -10 -24 -10 -9 0 -33 -17 -53 -37 -71 -73
-68 -38 -68 -784 0 -502 3 -682 12 -713 15 -49 82 -120 124 -131 16 -4 85 -10
154 -14 l125 -6 0 -210 0 -210 -875 -5 c-831 -5 -877 -6 -913 -24 -46 -23
-104 -88 -112 -127 -4 -16 -11 -31 -16 -34 -5 -4 -9 -15 -9 -26 0 -10 -4 -27
-9 -37 -8 -15 -21 -48 -51 -127 -4 -11 -13 -33 -20 -50 -7 -16 -20 -55 -30
-85 -10 -30 -23 -68 -30 -85 -7 -16 -16 -39 -20 -50 -4 -11 -15 -38 -23 -60
-9 -22 -24 -64 -33 -93 -9 -29 -20 -55 -25 -58 -5 -3 -9 -14 -9 -25 0 -10 -4
-27 -9 -37 -30 -60 -41 -100 -41 -152 0 -49 5 -69 30 -109 53 -86 172 -126
253 -85 44 22 96 73 111 109 27 61 46 111 62 163 9 29 20 55 25 58 5 3 9 14 9
25 0 10 4 27 9 37 5 9 17 37 26 62 9 25 21 53 26 62 5 10 9 23 9 29 0 6 6 25
14 42 15 33 53 137 64 172 3 11 13 34 22 50 l17 30 1849 3 c1017 1 1859 0
1871 -3 15 -3 25 -15 28 -33 8 -35 22 -93 40 -157 8 -27 17 -63 20 -80 15 -79
25 -117 35 -134 5 -11 10 -30 10 -42 0 -12 4 -36 9 -53 22 -74 40 -143 46
-171 15 -79 25 -117 35 -134 5 -11 10 -30 10 -42 0 -12 4 -36 9 -53 22 -74 40
-143 46 -171 15 -79 25 -117 35 -134 5 -11 10 -30 10 -42 0 -12 4 -36 9 -53
21 -72 40 -143 45 -166 13 -66 26 -101 54 -143 39 -55 116 -97 179 -97 84 0
166 -66 198 -159 13 -40 15 -424 15 -3475 0 -3178 -1 -3434 -17 -3476 -23 -64
-87 -122 -158 -145 -56 -17 -160 -18 -2634 -12 -2330 5 -2580 7 -2614 21 -54
23 -109 83 -130 141 -16 47 -17 235 -17 3471 0 3134 1 3426 16 3472 21 64 64
117 117 142 40 20 68 20 2217 20 l2176 0 51 25 c102 51 149 161 108 258 -19
46 -58 92 -98 114 -30 17 -134 18 -2205 21 -2068 2 -2245 0 -2342 -26 -75 -20
-200 -93 -261 -152 -66 -64 -134 -179 -167 -284 -15 -47 -17 -354 -19 -3556
-2 -2197 0 -3520 6 -3545 22 -92 30 -115 54 -166 70 -147 180 -249 349 -323
20 -9 44 -16 55 -16 10 0 28 -7 40 -15 19 -13 328 -15 2690 -12 l2668 3 84 31
c168 61 314 188 371 321 12 26 25 55 30 64 6 10 10 27 10 39 0 11 4 28 9 37
13 26 23 7027 10 7077 -6 22 -13 51 -15 65 -11 54 -55 139 -107 208 -36 48
-58 70 -128 126 -24 20 -132 76 -181 95 -18 7 -29 20 -33 38 -6 30 -14 61 -40
163 -9 36 -20 81 -25 100 -5 19 -16 64 -25 100 -9 36 -20 81 -25 100 -5 19
-16 64 -25 100 -9 36 -20 81 -25 100 -5 19 -16 64 -25 100 -9 36 -20 81 -25
100 -5 19 -16 64 -25 100 -9 36 -20 81 -25 100 -5 19 -16 64 -25 100 -9 36
-20 81 -25 100 -18 73 -42 166 -51 196 -5 17 -9 38 -9 47 0 29 -52 127 -77
147 -57 45 -50 44 -1073 50 l-975 5 0 210 0 210 120 6 c66 3 135 9 154 14 46
11 113 80 129 131 9 31 12 210 12 711 0 745 3 712 -68 786 -20 20 -44 37 -53
37 -10 0 -21 5 -24 10 -4 6 -178 10 -490 10 -312 0 -486 -4 -490 -10z m686
-410 c18 -10 19 -26 19 -423 0 -308 -3 -416 -12 -425 -18 -18 -392 -17 -407 2
-8 9 -10 130 -9 427 l3 414 185 5 c102 3 189 7 193 8 5 1 17 -3 28 -8z"/>
<path d="M6385 11294 c-11 -3 -30 -7 -42 -10 -13 -2 -39 -18 -58 -36 -123
-108 -89 -287 68 -353 27 -11 73 -15 172 -15 145 0 179 8 241 55 17 13 41 44
53 69 48 104 9 213 -99 275 -18 11 -66 15 -170 17 -80 2 -154 1 -165 -2z"/>
<path d="M7436 11293 c-47 -8 -114 -60 -136 -105 -29 -60 -27 -147 4 -196 59
-92 111 -112 291 -112 124 0 139 2 190 26 66 32 90 60 111 130 26 91 -8 179
-90 231 -39 26 -48 27 -191 29 -82 1 -163 0 -179 -3z"/>
<path d="M8510 11294 c-119 -23 -190 -143 -155 -260 20 -69 44 -96 110 -128
51 -24 66 -26 190 -26 148 0 197 12 248 59 99 90 88 248 -22 324 -44 30 -45
30 -195 33 -83 1 -162 0 -176 -2z"/>
<path d="M9580 11294 c-97 -19 -170 -107 -170 -205 0 -52 35 -124 74 -154 62
-47 96 -55 244 -55 128 0 142 2 189 25 131 66 162 212 68 323 -47 56 -75 64
-235 68 -80 1 -156 0 -170 -2z"/>
<path d="M10645 11292 c-95 -16 -165 -100 -165 -198 0 -93 51 -165 141 -198
37 -14 72 -17 185 -14 122 3 145 6 187 27 75 37 97 80 97 186 0 99 -10 120
-78 167 -44 31 -47 31 -186 34 -78 1 -159 -1 -181 -4z"/>
<path d="M6340 10644 c-181 -81 -167 -332 22 -391 94 -30 282 -52 333 -39 63
16 145 126 145 194 -1 101 -87 194 -199 214 -25 4 -71 13 -101 18 -101 19
-163 20 -200 4z"/>
<path d="M7406 10446 c-51 -16 -113 -69 -131 -113 -19 -45 -19 -121 0 -166 31
-74 97 -115 220 -138 206 -38 247 -34 316 30 87 81 95 193 20 283 -50 59 -90
72 -351 111 -19 3 -52 0 -74 -7z"/>
<path d="M8449 10243 c-37 -6 -107 -68 -124 -110 -8 -20 -15 -62 -15 -94 0
-71 29 -125 88 -163 59 -39 197 -69 315 -70 72 -1 86 2 117 24 76 53 94 87 94
175 -1 76 -14 108 -66 156 -29 27 -117 59 -162 59 -15 0 -35 4 -44 9 -20 10
-166 21 -203 14z"/>
<path d="M9525 10042 c-61 -6 -117 -47 -152 -109 -7 -13 -13 -55 -13 -95 1
-63 4 -79 28 -112 29 -42 119 -96 161 -96 13 0 40 -4 60 -9 20 -5 68 -15 106
-21 107 -17 172 10 229 95 22 31 26 49 26 105 0 57 -4 73 -27 108 -33 48 -65
73 -116 91 -67 23 -247 48 -302 43z"/>
<path d="M10515 9824 c-43 -24 -74 -54 -90 -89 -47 -106 -13 -225 80 -276 44
-24 71 -30 294 -66 38 -6 105 12 141 40 106 80 108 240 4 325 -20 17 -48 33
-63 36 -14 3 -60 13 -101 22 -114 24 -228 28 -265 8z"/>
<path d="M2699 5942 c-66 -34 -110 -99 -116 -170 -6 -65 36 -145 97 -187 l45
-30 1845 -3 c1449 -2 1846 -5 1852 -15 11 -18 10 -3809 -2 -3827 -8 -13 -225
-15 -1852 -15 l-1843 0 -42 -27 c-47 -31 -91 -98 -100 -152 -14 -87 60 -191
155 -221 52 -17 164 -18 1997 -12 2114 7 1975 3 2038 63 16 14 37 47 48 71 19
44 19 100 19 2213 0 1681 -3 2175 -12 2197 -23 53 -60 92 -111 118 l-51 25
-1957 0 -1957 0 -53 -28z"/>
<path d="M2707 4666 c-26 -13 -57 -34 -68 -47 -30 -34 -59 -105 -59 -143 0
-53 49 -137 100 -171 l45 -30 1085 -3 c597 -2 1108 0 1137 3 173 21 244 231
119 350 -23 22 -61 46 -84 53 -32 9 -288 12 -1134 12 l-1093 -1 -48 -23z"/>
<path d="M2741 3825 c-62 -16 -122 -71 -144 -131 -21 -61 -21 -77 0 -138 27
-73 84 -119 170 -135 97 -18 1740 -11 1797 8 60 20 121 87 132 147 16 82 -1
140 -56 194 -38 37 -57 47 -106 58 -84 17 -1728 15 -1793 -3z"/>
<path d="M2738 2971 c-20 -4 -53 -20 -73 -36 -40 -30 -85 -113 -85 -157 0 -44
30 -110 68 -150 58 -61 94 -68 356 -68 291 0 317 7 387 104 25 33 29 48 29
103 0 88 -29 140 -105 189 -27 17 -52 19 -285 21 -140 1 -272 -2 -292 -6z"/>
<path d="M4025 2973 c-72 -10 -164 -118 -165 -194 0 -45 31 -118 66 -153 67
-67 59 -66 787 -66 730 0 716 -1 786 69 49 49 71 131 51 194 -18 56 -51 100
-97 129 l-38 23 -680 1 c-374 1 -693 -1 -710 -3z"/>
</g>
</svg>
